<svg xmlns="http://www.w3.org/2000/svg" viewBox="0 0 600 444" width="600" height="444">
	<style>
		tspan { white-space:pre }
		.shp0 { fill: #000000 } 
	</style>
	<path id="Layer" fill-rule="evenodd" className="shp0" d="M114.63 152.38C114.63 116.68 143.56 87.75 179.25 87.75C214.94 87.75 243.88 116.68 243.88 152.38C243.88 188.06 214.94 217 179.25 217C143.58 216.95 114.67 188.05 114.63 152.38ZM139.63 152.5C139.63 174.38 157.36 192.13 179.25 192.13C201.13 192.13 218.88 174.38 218.88 152.5C218.88 130.61 201.13 112.88 179.25 112.88C157.37 112.88 139.63 130.62 139.63 152.5Z" />
	<path id="Layer" fill-rule="evenodd" className="shp0" d="M249.5 270.25C268.25 289.38 278.5 315.38 278.5 343.63C278.48 350.52 272.89 356.11 266 356.13L92.5 356.13C85.61 356.11 80.02 350.52 80 343.63C80 315.38 90.25 289.38 109 270.25C127.43 251.29 152.81 240.68 179.25 240.88C205.7 240.68 231.07 251.29 249.5 270.25ZM252.63 331.13C250.46 314.79 243.09 299.58 231.63 287.75C217.79 273.75 198.93 265.88 179.25 265.88C159.57 265.88 140.71 273.75 126.88 287.75C115.38 299.57 108.02 314.78 105.88 331.13L252.63 331.13Z" />
	<path id="Layer" fill-rule="evenodd" className="shp0" d="M600 63.25L600 380.75C599.98 415.26 572.01 443.23 537.5 443.25L62.5 443.25C27.99 443.23 0.02 415.26 0 380.75L0 63.25C0.02 28.74 27.99 0.77 62.5 0.75L537.5 0.75C572.01 0.77 599.98 28.74 600 63.25ZM575 63.25C574.94 42.57 558.18 25.81 537.5 25.75L62.5 25.75C41.82 25.81 25.06 42.57 25 63.25L25 380.75C25.06 401.43 41.82 418.19 62.5 418.25L537.5 418.25C558.18 418.19 574.94 401.43 575 380.75L575 63.25Z" />
	<path id="Layer" className="shp0" d="M506.75 209.5L361.13 209.5C354.22 209.5 348.63 215.09 348.63 222C348.63 228.91 354.22 234.5 361.13 234.5L506.75 234.5C513.65 234.5 519.25 228.91 519.25 222C519.25 215.09 513.65 209.5 506.75 209.5Z" />
	<path id="Layer" className="shp0" d="M506.75 289.5L361.13 289.5C354.22 289.5 348.63 295.09 348.63 302C348.63 308.91 354.22 314.5 361.13 314.5L506.75 314.5C513.65 314.5 519.25 308.91 519.25 302C519.25 295.09 513.65 289.5 506.75 289.5Z" />
	<path id="Layer" className="shp0" d="M506.75 129.5L361.13 129.5C354.22 129.5 348.63 135.09 348.63 142C348.63 148.91 354.22 154.5 361.13 154.5L506.75 154.5C513.65 154.5 519.25 148.91 519.25 142C519.25 135.09 513.65 129.5 506.75 129.5Z" />
</svg>